<?xml version="1.0" ?><svg height="500" id="svg2" version="1.1" width="500" xmlns="http://www.w3.org/2000/svg" xmlns:cc="http://creativecommons.org/ns#" xmlns:dc="http://purl.org/dc/elements/1.1/" xmlns:inkscape="http://www.inkscape.org/namespaces/inkscape" xmlns:rdf="http://www.w3.org/1999/02/22-rdf-syntax-ns#" xmlns:sodipodi="http://sodipodi.sourceforge.net/DTD/sodipodi-0.dtd" xmlns:svg="http://www.w3.org/2000/svg"><defs id="defs4"/><g id="layer1" transform="translate(-207.5,-69.21875)"><g id="layer1-7" transform="translate(55.728928,-28.316651)"/><path d="M 261.49325,69.21875 C 231.58099,69.21875 207.5,93.29974 207.5,123.212 l 0,392.0135 c 0,29.91226 24.08099,53.99325 53.99325,53.99325 l 392.0135,0 c 29.91226,0 53.99325,-24.08099 53.99325,-53.99325 l 0,-392.0135 c 0,-29.91226 -24.08099,-53.99325 -53.99325,-53.99325 l -392.0135,0 z m 76.26547,108.7739 c 14.39337,0 32.98606,10.04905 38.69516,23.39708 7.43822,-1.72915 15.09903,-2.81215 23.05962,-2.81215 l 123.50956,0 c 7.96058,0 15.62201,1.08364 23.05962,2.81215 5.7091,-13.34803 24.30178,-23.39708 38.69516,-23.39708 17.04689,0 20.58493,13.88674 20.58493,30.93364 l 0,31.38357 c 12.78517,17.12731 20.58492,38.19512 20.58492,61.19235 l 0,41.16986 c 0,56.84978 -46.07485,102.92463 -102.92463,102.92463 l -123.50956,0 c -56.84978,0 -102.92464,-46.07485 -102.92464,-102.92463 l 0,-41.16986 c 0,-22.99723 7.79976,-44.06504 20.58493,-61.19235 l 0,-31.38357 c 0,-17.0469 3.53803,-30.93364 20.58493,-30.93364 z m 61.75478,123.50956 c -34.09379,0 -61.75478,27.661 -61.75478,61.75479 0,34.09378 27.66099,61.75478 61.75478,61.75478 l 123.50956,0 c 34.09379,0 61.75478,-27.661 61.75478,-61.75478 0,-34.09379 -27.66099,-61.75479 -61.75478,-61.75479 l -123.50956,0 z m 0,20.58493 c 17.04689,0 20.58493,13.88674 20.58493,30.93363 l 0,10.91114 c 0,17.04689 -3.53804,30.93363 -20.58493,30.93363 -17.04689,0 -20.58493,-13.88674 -20.58493,-30.93363 l 0,-10.91114 c 0,-17.04689 3.53804,-30.93363 20.58493,-30.93363 z m 123.50956,0 c 17.04689,0 20.58493,13.88674 20.58493,30.93363 l 0,10.91114 c 0,17.04689 -3.53804,30.93363 -20.58493,30.93363 -17.04689,0 -20.58493,-13.88674 -20.58493,-30.93363 l 0,-10.91114 c 0,-17.04689 3.53804,-30.93363 20.58493,-30.93363 z" id="rect3003" style="fill:#000000;fill-opacity:1;stroke:none"/><g id="g3006" style="fill:#ffffff" transform="matrix(0.17871094,0,0,0.17871094,245.33672,459.25678)"/></g></svg>